<mxfile host="app.diagrams.net" modified="2024-06-01T09:27:50.380Z" agent="Mozilla/5.0 (Windows NT 10.0; Win64; x64) AppleWebKit/537.36 (KHTML, like Gecko) Chrome/114.0.0.0 Safari/537.36 Edg/114.0.1823.82" etag="06-WKNK_k_315oJs5iyy" version="24.4.13" type="github">
  <diagram name="第 1 页" id="vQZocvhDvhqBqDQqaUas">
    <mxGraphModel dx="996" dy="549" grid="1" gridSize="10" guides="1" tooltips="1" connect="1" arrows="1" fold="1" page="1" pageScale="1" pageWidth="1100" pageHeight="850" math="0" shadow="0">
      <root>
        <mxCell id="0" />
        <mxCell id="1" parent="0" />
        <mxCell id="M-NLeuacRYu8zQuhprgt-1" value="" style="verticalLabelPosition=bottom;shadow=0;dashed=0;align=center;html=1;verticalAlign=top;shape=mxgraph.electrical.logic_gates.buffer2;" vertex="1" parent="1">
          <mxGeometry x="340" y="190" width="100" height="60" as="geometry" />
        </mxCell>
        <mxCell id="M-NLeuacRYu8zQuhprgt-2" value="" style="verticalLabelPosition=bottom;shadow=0;dashed=0;align=center;html=1;verticalAlign=top;shape=mxgraph.electrical.logic_gates.logic_gate;operation=and;" vertex="1" parent="1">
          <mxGeometry x="370" y="70" width="100" height="60" as="geometry" />
        </mxCell>
        <mxCell id="M-NLeuacRYu8zQuhprgt-3" value="" style="verticalLabelPosition=bottom;shadow=0;dashed=0;align=center;html=1;verticalAlign=top;shape=mxgraph.electrical.logic_gates.logic_gate;operation=and;negating=1;negSize=0.15;" vertex="1" parent="1">
          <mxGeometry x="360" y="320" width="100" height="60" as="geometry" />
        </mxCell>
        <mxCell id="M-NLeuacRYu8zQuhprgt-4" value="" style="verticalLabelPosition=bottom;shadow=0;dashed=0;align=center;html=1;verticalAlign=top;shape=mxgraph.electrical.logic_gates.logic_gate;operation=or;negating=1;negSize=0.15;" vertex="1" parent="1">
          <mxGeometry x="660" y="200" width="100" height="60" as="geometry" />
        </mxCell>
        <mxCell id="M-NLeuacRYu8zQuhprgt-5" value="" style="verticalLabelPosition=bottom;shadow=0;dashed=0;align=center;html=1;verticalAlign=top;shape=mxgraph.electrical.iec_logic_gates.nand_2;" vertex="1" parent="1">
          <mxGeometry x="520" y="140" width="66" height="80" as="geometry" />
        </mxCell>
      </root>
    </mxGraphModel>
  </diagram>
</mxfile>
